# xmcd
#
# Track frame offsets: 
#        150
#        16454
#        33919
#        51552
#        77259
#        98636
#        116242
#        137166
#        154228
#        170110
#        189287
#
# Disc length: 2769 seconds
#
# Revision: 0
# Processed by: cddbd v1.5.1PL0 Copyright (c) Steve Scherf et al.
# Submitted via: ExactAudioCopy v0.95a5
#
DISCID=8d0acf0b
DTITLE=Darden Smith - Circo
DYEAR=2004
DGENRE=Folk
TTITLE0=What Are We Gonna Do
TTITLE1=Make Love So Hard
TTITLE2=Shooting Star
TTITLE3=Turning To You
TTITLE4=One Hundred Ways
TTITLE5=Mill Creek
TTITLE6=Late Train To London
TTITLE7=Hands On The Wheel
TTITLE8=God Loves A River
TTITLE9=Rise
TTITLE10=All Around You
EXTD=
EXTT0=
EXTT1=
EXTT2=
EXTT3=
EXTT4=
EXTT5=
EXTT6=
EXTT7=
EXTT8=
EXTT9=
EXTT10=
PLAYORDER=
